<?xml version="1.0" encoding="utf-8"?>
<!-- Generator: Adobe Illustrator 27.5.0, SVG Export Plug-In . SVG Version: 6.00 Build 0)  -->
<svg version="1.1" id="Layer_1" xmlns="http://www.w3.org/2000/svg" xmlns:xlink="http://www.w3.org/1999/xlink" x="0px" y="0px"
	 viewBox="0 0 2899.765 2000" style="enable-background:new 0 0 2899.765 2000;" xml:space="preserve">
<rect style="fill:#FFFFFF;" width="2899.765" height="2000"/>
<g>
	<path style="fill:#CDEBEA;" d="M2582.524,1893c0,0,313.625-565.085-66.153-1048.561
		c-95.994-122.205,15.001-396.723-408.829-611.157c-316.907-160.337-737.508,11.535-913.681,98.534s-258.821,30.45-361.045-4.35
		c-102.223-34.8-347.37-32.512-512.668,256.758s-72.398,676.303-39.774,809.395c32.625,133.093,45.674,125.728-23.925,273.102
		c-51.196,108.407,25.884,191.771,70.225,228.278h2255.848V1893z"/>
	<g>
		<g>
			<g>
				<path style="fill:#FFFFFF;" d="M1536.093,406.427c35.994-0.412,120.29-0.071,192.95,10.071
					c30.061,4.196,57.779-20.144,59.131-52.363c0.553-13.187-2.933-28.732-13.36-46.665
					c-40.148-69.051-121.298-8.997-122.699,24.981c0,0-12.366-51.876-60.285-45.263c-47.919,6.613-35.862,81.766-35.862,81.766
					s-15.065-4.18-26.142,2.971C1518.932,388.955,1523.453,406.572,1536.093,406.427z"/>
			</g>
		</g>
	</g>
	<g>
		<g>
			<g>
				<path style="fill:#FFFFFF;" d="M462.278,783.721c76.73-6.084,263.949-18.229,376.984-2.575
					c16.336,2.263,26.962-16.976,16.135-29.416c-7.808-8.971-21.594-16.434-45.735-17.27c0,0,21.278-104.965-80.134-113.831
					c-104.213-9.111-104.551,101.063-104.551,101.063s-61.44-57.17-90.239,14.632c0,0-64.572-27.501-93.381,7.715
					C427.787,760.628,440.914,785.416,462.278,783.721z"/>
			</g>
		</g>
	</g>
	<g>
		<g>
			<g>
				<path style="fill:#FFFFFF;" d="M1997.154,608.076c58.138-4.61,199.992-13.812,285.638-1.951
					c12.378,1.714,20.429-12.862,12.225-22.288c-5.916-6.797-16.361-12.452-34.653-13.085c0,0,16.122-79.531-60.717-86.249
					c-78.961-6.903-79.218,76.575-79.218,76.575s-46.553-43.318-68.373,11.087c0,0-48.926-20.837-70.754,5.846
					C1971.02,590.579,1980.966,609.36,1997.154,608.076z"/>
			</g>
		</g>
	</g>
	
		<rect x="201.43" y="1891.843" transform="matrix(-1 -1.224647e-16 1.224647e-16 -1 2897.2556 3790.3706)" style="fill:#21111D;" width="2494.396" height="6.684"/>
	<g>
		<g>
			<g>
				<g>
					<g>
						<g>
							<g>
								<polygon style="fill:#F57583;" points="1758.804,736.337 1459.172,736.337 1417.638,1094.561 1758.804,1094.561 
									2099.969,1094.561 2058.436,736.337 								"/>
							</g>
						</g>
					</g>
				</g>
			</g>
			<g>
				<g>
					<g>
						<g>
							<g>
								<polygon style="fill:#F57583;" points="1417.638,974.411 1459.172,1892.51 1758.804,1892.51 2058.436,1892.51 
									2099.969,974.411 1758.804,974.411 								"/>
							</g>
						</g>
					</g>
				</g>
			</g>
			<g>
				<g>
					<g>
						<g>
							<g>
								<rect x="1387.23" y="929.911" style="fill:#E56174;" width="747.597" height="164.65"/>
							</g>
						</g>
					</g>
				</g>
			</g>
			<g>
				<g>
					<g>
						<g>
							<g>
								<polygon style="fill:#180D11;" points="1534.821,783.804 1516.279,895.053 2001.328,895.053 1982.786,783.804 								"/>
							</g>
						</g>
					</g>
				</g>
			</g>
			<g>
				<g>
					<g>
						<g>
							<g>
								<g>
									<g>
										<polygon style="fill:#FFFFFF;" points="1786.745,1213.63 1759.34,1260.813 1800.575,1338.097 1870.536,1338.097 
											1798.541,1213.63 										"/>
									</g>
								</g>
							</g>
						</g>
					</g>
					<g>
						<g>
							<g>
								<g>
									<g>
										<polygon style="fill:#FFFFFF;" points="1711.192,1213.63 1661.738,1296.737 1636.172,1281.988 1660.925,1356.465 
											1737.859,1340.947 1712.358,1326.088 1776.253,1213.63 										"/>
									</g>
								</g>
							</g>
						</g>
					</g>
				</g>
				<g>
					<g>
						<g>
							<g>
								<g>
									<g>
										<polygon style="fill:#FFFFFF;" points="1548.171,1479.884 1553.905,1490.193 1608.461,1491.207 1655.956,1417.606 
											1621.948,1356.465 										"/>
									</g>
								</g>
							</g>
						</g>
					</g>
					<g>
						<g>
							<g>
								<g>
									<g>
										<polygon style="fill:#FFFFFF;" points="1688.342,1500.537 1559.005,1499.361 1590.63,1556.219 1687.297,1559.041 
											1686.835,1588.552 1739.89,1530.719 1688.932,1471.028 										"/>
									</g>
								</g>
							</g>
						</g>
					</g>
				</g>
				<g>
					<g>
						<g>
							<g>
								<g>
									<g>
										<polygon style="fill:#FFFFFF;" points="1816.91,1498.827 1781.754,1559.314 1925.543,1559.612 1931.471,1549.414 
											1904.448,1502.01 										"/>
									</g>
								</g>
							</g>
						</g>
					</g>
					<g>
						<g>
							<g>
								<g>
									<g>
										<polygon style="fill:#FFFFFF;" points="1948.032,1384.883 1871.202,1368.858 1845.959,1443.171 1871.621,1428.59 
											1936.742,1540.344 1969.436,1484.092 1922.434,1399.574 										"/>
									</g>
								</g>
							</g>
						</g>
					</g>
				</g>
			</g>
			<g>
				<g>
					<g>
						<g>
							<g>
								
									<rect x="1677.101" y="1490.631" transform="matrix(0.0449 -0.999 0.999 0.0449 491.1385 3500.8013)" width="798.767" height="5.81"/>
							</g>
						</g>
					</g>
				</g>
			</g>
			<g>
				<g>
					<g>
						<g>
							<g>
								<polygon points="1776.254,932.816 2131.922,932.816 2131.922,1091.655 1387.229,1091.655 1387.229,1097.465 
									2137.731,1097.465 2137.731,927.006 1776.254,927.006 								"/>
							</g>
						</g>
					</g>
				</g>
			</g>
			<g>
				<g>
					<g>
						<g>
							<g>
								
									<rect x="2066.752" y="735.688" transform="matrix(0.9933 -0.1152 0.1152 0.9933 -82.1787 243.9052)" width="5.809" height="194.872"/>
							</g>
						</g>
					</g>
				</g>
			</g>
			<g>
				<g>
					<g>
						<g>
							<g>
								<polygon points="1433.843,929.576 1439.613,930.246 1461.759,739.241 1747.926,739.241 1747.926,733.431 1456.584,733.431 
																	"/>
							</g>
						</g>
					</g>
				</g>
			</g>
			<g>
				<g>
					<g>
						<g>
							<g>
								<polygon points="1384.325,1002.348 1390.134,1002.348 1390.134,932.816 1607.504,932.816 1607.504,927.006 
									1384.325,927.006 								"/>
							</g>
						</g>
					</g>
				</g>
			</g>
			<g>
				<g>
					<g>
						<g>
							<g>
								
									<rect x="1435.5" y="1094.02" transform="matrix(0.9986 -0.052 0.052 0.9986 -75.6879 76.7857)" width="5.809" height="799.031"/>
							</g>
						</g>
					</g>
				</g>
			</g>
			<g>
				<g>
					<g>
						<g>
							<g>
								<g>
									
										<rect x="1529.917" y="1770.044" transform="matrix(0.7204 -0.6936 0.6936 0.7204 -825.2495 1568.7063)" width="5.808" height="75.499"/>
								</g>
							</g>
						</g>
					</g>
				</g>
				<g>
					<g>
						<g>
							<g>
								<g>
									
										<rect x="1535.796" y="1733.507" transform="matrix(0.7204 -0.6936 0.6936 0.7204 -798.2587 1562.5093)" width="5.808" height="75.502"/>
								</g>
							</g>
						</g>
					</g>
				</g>
			</g>
			<g>
				<g>
					<g>
						<g>
							<g>
								<g>
									
										<rect x="2034.692" y="982.865" transform="matrix(0.7204 -0.6936 0.6936 0.7204 -138.1199 1698.6377)" width="5.808" height="75.502"/>
								</g>
							</g>
						</g>
					</g>
				</g>
				<g>
					<g>
						<g>
							<g>
								<g>
									
										<rect x="2040.57" y="946.33" transform="matrix(0.7204 -0.6936 0.6936 0.7204 -111.1166 1692.5553)" width="5.808" height="75.499"/>
								</g>
							</g>
						</g>
					</g>
				</g>
			</g>
		</g>
	</g>
	<g>
		<g>
			<g>
				<g>
					<g>
						<g>
							<path style="fill:#FE9F73;" d="M1368.524,1142.933c9.232-10.558,24.188-30.052,28.149-38.55
								c0.007-0.009,0.007-0.009,0.005-0.024c0.384-0.799,0.657-1.514,0.817-2.106c0.014-0.017,0.027-0.05,0.032-0.075
								c0.037-0.171,0.068-0.334,0.092-0.472c0.432-2.646,1.258-5.55,2.375-8.565c2.149-9.913,3.087-20.483,4.464-23.462
								c1.272-2.754,6.646-5.961,10.197-7.849c2.957-1.572,4.607-4.988,3.68-8.206c-0.539-1.869-1.887-3.612-4.822-4.404
								c0,0,2.595-9.036-5.615-10.117c0,0,2.964-9.905-10.219-8.384c0,0-0.945-5.639-7.184-5.825
								c-6.248-0.193-19.701,5.471-21.609,7.145c-1.906,1.689-22.353,29.615-22.353,29.615s-18.446,38.529-19.907,40.361
								L1368.524,1142.933z"/>
						</g>
					</g>
				</g>
				<g>
					<g>
						<g>
							<g>
								<g>
									<g>
										<path style="fill:#F07162;" d="M1370.459,1049.046c0.193-0.035,0.376-0.141,0.506-0.31
											c0.053-0.069,5.275-6.874,7.896-8.738c2.116-1.504,13.428-6.237,19.113-8.53c0.416-0.167,0.623-0.638,0.461-1.051
											c-0.162-0.413-0.633-0.609-1.046-0.443c-0.679,0.273-16.651,6.723-19.452,8.715c-2.823,2.007-8.03,8.792-8.251,9.08
											c-0.273,0.357-0.208,0.862,0.145,1.129C1370.016,1049.039,1370.245,1049.085,1370.459,1049.046z"/>
									</g>
								</g>
							</g>
						</g>
					</g>
				</g>
				<g>
					<g>
						<g>
							<g>
								<g>
									<g>
										<path style="fill:#F07162;" d="M1383.334,1057.99c0.2-0.037,0.387-0.147,0.517-0.325c0.04-0.055,4.066-5.542,7.224-8.145
											c3.171-2.611,17.046-9.629,17.186-9.7c0.401-0.202,0.566-0.688,0.37-1.084c-0.197-0.397-0.681-0.553-1.082-0.352
											c-0.577,0.292-14.181,7.172-17.492,9.9c-3.32,2.735-7.338,8.213-7.507,8.445c-0.265,0.362-0.189,0.866,0.171,1.125
											C1382.903,1057.985,1383.126,1058.027,1383.334,1057.99z"/>
									</g>
								</g>
							</g>
						</g>
					</g>
				</g>
				<g>
					<g>
						<g>
							<g>
								<g>
									<g>
										<path style="fill:#F07162;" d="M1392.217,1065.404c0.21-0.038,0.406-0.159,0.536-0.352
											c0.025-0.038,2.576-3.814,5.704-6.563c3.126-2.748,15.266-8.486,15.389-8.544c0.406-0.191,0.585-0.672,0.4-1.075
											c-0.186-0.402-0.668-0.573-1.071-0.381c-0.508,0.24-12.474,5.897-15.775,8.797c-3.294,2.895-5.877,6.723-5.985,6.884
											c-0.25,0.373-0.153,0.873,0.217,1.116C1391.809,1065.404,1392.02,1065.441,1392.217,1065.404z"/>
									</g>
								</g>
							</g>
						</g>
					</g>
				</g>
			</g>
			<g>
				<path style="fill:#FE9F73;" d="M595.977,1821.606l45.907-49.666c0,0-41.816-12.388-43.472-11.975
					c-1.656,0.414-37.4,12.352-37.4,12.352s-9.798,17.458-9.384,24.496c0.414,7.038,4.14,23.599,11.592,28.154
					c7.453,4.554,8.695,7.866,15.319,5.382C585.163,1827.865,595.977,1821.606,595.977,1821.606z"/>
			</g>
			<g>
				<g>
					<g>
						<g>
							<g>
								<g>
									<g>
										<g>
											<g>
												<g>
													<g>
														<g>
															<g>
																<polygon style="fill:#FE9F73;" points="989.248,1872.827 929.232,1873.034 929.038,1856.304 952.64,1794.253 
																	1022.331,1802.093 																"/>
															</g>
														</g>
													</g>
												</g>
											</g>
										</g>
									</g>
								</g>
							</g>
						</g>
					</g>
				</g>
			</g>
			<g>
				<g>
					<g>
						<g>
							<g>
								<path style="fill:#FEC786;" d="M928.497,1877.762h65.463l26.541-28.911l48.545,28.911h10.456
									c3.603,0,6.906,2.437,7.584,5.975c0.913,4.761-2.711,8.925-7.308,8.925H927.564c-1.119,0-2.025-0.906-2.025-2.025v-9.916
									C925.539,1879.086,926.863,1877.762,928.497,1877.762z"/>
							</g>
						</g>
					</g>
				</g>
				<g>
					<g>
						<g>
							<g>
								<path style="fill:#3AA1C9;" d="M929.076,1877.846v-26.872c0,0,11.025-14.84,27.811-7.265c0,0,25.39,18.012,47.771-3.785
									l55.58,24.654c0,0,15.24,5.094,19.366,13.268H929.076z"/>
							</g>
						</g>
					</g>
				</g>
				<g>
					<g>
						<g>
							<g>
								<g>
									<g>
										<rect x="928.518" y="1850.974" width="1.114" height="26.739"/>
									</g>
								</g>
							</g>
						</g>
					</g>
				</g>
				<g>
					<g>
						<g>
							<g>
								<g>
									<g>
										<path d="M979.642,1851.266c2.128,0,3.409-0.182,3.451-0.188l-0.165-1.101c-0.13,0.017-13.25,1.857-25.725-6.728
											l-0.631,0.918C965.51,1850.319,974.781,1851.266,979.642,1851.266z"/>
									</g>
								</g>
							</g>
						</g>
					</g>
				</g>
				<g>
					<g>
						<g>
							<g>
								<g>
									<g>
										
											<rect x="938.807" y="1865.689" transform="matrix(0.5583 -0.8297 0.8297 0.5583 -1136.4913 1605.3611)" width="1.115" height="8.563"/>
									</g>
								</g>
							</g>
						</g>
					</g>
				</g>
				<g>
					<g>
						<g>
							<g>
								<g>
									<g>
										
											<rect x="943.9" y="1864.336" transform="matrix(0.5591 -0.8291 0.8291 0.5591 -1132.8635 1606.9507)" width="1.113" height="8.562"/>
									</g>
								</g>
							</g>
						</g>
					</g>
				</g>
				<g>
					<g>
						<g>
							<g>
								<g>
									<g>
										<g>
											<g>
												<g>
													<g>
														<g>
															<g>
																<path d="M1084.957,1891.368c1.798-1.525,2.828-3.75,2.828-6.106c0-4.415-3.592-8.007-8.007-8.007H929.274
																	c-2.367,0-4.292,1.926-4.292,4.293v7.428h1.115v-7.428c0-1.754,1.425-3.179,3.178-3.179h150.505
																	c3.801,0,6.893,3.092,6.893,6.893c0,2.028-0.887,3.944-2.434,5.258L1084.957,1891.368z"/>
															</g>
														</g>
													</g>
												</g>
											</g>
										</g>
									</g>
								</g>
							</g>
						</g>
					</g>
				</g>
				<g>
					<g>
						<g>
							<g>
								<g>
									<g>
										<path d="M1079.274,1878.05l1.008-0.475c-0.124-0.264-3.173-6.512-14.55-11.364c-11.18-4.767-60.352-26.577-60.847-26.797
											l-0.453,1.019c0.497,0.22,49.677,22.033,60.863,26.803C1076.241,1871.905,1079.246,1877.989,1079.274,1878.05z"/>
									</g>
								</g>
							</g>
						</g>
					</g>
				</g>
			</g>
			<g>
				<g>
					<g>
						<g>
							<g>
								<g>
									<g>
										<g>
											<path style="fill:#FE9F73;" d="M1284.332,870.292l-38.747,51.436c0,0-12.373,17.932-29.224,8.646l-14.634,25.337
												c-5.439,9.418-16.814,13.789-27.071,10.173c-5.015-1.768-10.555-4.473-16.036-8.603
												c-17.387-13.097-16.982-33.232-13.519-40.844c3.463-7.612,31.276-35.489,31.276-35.489l11.001-15.706l46.657-57.821
												L1284.332,870.292z"/>
										</g>
									</g>
								</g>
							</g>
						</g>
					</g>
				</g>
				<g>
					<g>
						<g>
							<g>
								<g>
									<g>
										<g>
											<path d="M1222.98,864.388c-0.181-0.136-0.311-0.339-0.349-0.58c-0.08-0.494,0.256-0.959,0.75-1.039
												c0.178-0.029,17.82-2.716,21.399,11.48c0.123,0.485-0.172,0.978-0.657,1.101c-0.487,0.124-0.979-0.171-1.101-0.658
												c-3.172-12.577-18.692-10.238-19.351-10.132C1223.417,864.599,1223.17,864.531,1222.98,864.388z"/>
										</g>
									</g>
								</g>
							</g>
						</g>
					</g>
				</g>
				<g>
					<g>
						<g>
							<g>
								<g>
									<g>
										<g>
											<path d="M1256.118,882.537c-0.203-0.153-0.34-0.39-0.359-0.663c-0.034-0.499,0.343-0.932,0.842-0.967
												c0.483-0.033,11.846-0.737,13.392,6.3c0.108,0.489-0.202,0.973-0.69,1.08c-0.49,0.109-0.973-0.201-1.081-0.691
												c-1.212-5.513-11.394-4.886-11.497-4.879C1256.499,882.733,1256.286,882.664,1256.118,882.537z"/>
										</g>
									</g>
								</g>
							</g>
						</g>
					</g>
				</g>
				<g>
					<g>
						<g>
							<g>
								<g>
									<g>
										<g>
											<path d="M1235.425,878.351c-0.904,1.2-2.61,1.44-3.811,0.536c-1.2-0.904-1.44-2.61-0.536-3.81
												c0.904-1.2,2.611-1.44,3.811-0.536C1236.089,875.445,1236.329,877.151,1235.425,878.351z"/>
										</g>
									</g>
								</g>
							</g>
						</g>
					</g>
				</g>
				<g>
					<g>
						<g>
							<g>
								<g>
									<g>
										<g>
											<path d="M1260.164,893.581c-0.904,1.2-2.61,1.44-3.811,0.536c-1.2-0.904-1.44-2.61-0.536-3.811
												c0.904-1.2,2.61-1.44,3.81-0.536C1260.828,890.674,1261.068,892.38,1260.164,893.581z"/>
										</g>
									</g>
								</g>
							</g>
						</g>
					</g>
				</g>
				<g>
					<g>
						<g>
							<g>
								<g>
									<g>
										<g>
											<path d="M1233.908,811.805l-0.808,26.308c0,0,25.995,41.951,57.565,39.236c31.569-2.715,31.889-15.201,32.743-27.822
												c0.421-6.222-6.175-24.503-27.444-29.432c-11.609-2.691-9.36-19.063-23.869-20.907
												c-14.508-1.845-34.033-0.82-35.685,4.159C1234.758,808.325,1233.908,811.805,1233.908,811.805z"/>
										</g>
									</g>
								</g>
							</g>
						</g>
					</g>
				</g>
				<g>
					<g>
						<g>
							<g>
								<g>
									<g>
										<g>
											<path d="M1240.099,805.113c0,0-16.119-13.404-32.915-0.822c-16.796,12.582-16.869,25.743-20.323,30.664
												c-3.455,4.921-31.085,34.828-6.549,49.526l46.398-48.827l8.123-27.236L1240.099,805.113z"/>
										</g>
									</g>
								</g>
							</g>
						</g>
					</g>
				</g>
				<g>
					<g>
						<g>
							<g>
								<g>
									<g>
										<g>
											<path style="fill:#FE9F73;" d="M1218.043,864.075c-5.425,7.202-15.661,8.642-22.863,3.217
												c-7.202-5.425-8.642-15.661-3.217-22.863c5.425-7.202,15.661-8.642,22.863-3.217
												C1222.027,846.637,1223.468,856.873,1218.043,864.075z"/>
										</g>
									</g>
								</g>
							</g>
						</g>
					</g>
				</g>
				<g>
					<g>
						<g>
							<g>
								<g>
									<g>
										<g>
											<path style="fill:#F07162;" d="M1198.019,861.516c-2.709-2.041-2.984-5.44-2.048-7.923
												c1.108-2.938,3.677-4.667,6.546-4.409c4.238,0.383,5.99,3.505,6.666,5.398c0.552-1.904,0.481-3.646-0.214-5.193
												c-1.504-3.35-5.466-4.72-5.506-4.734c-0.238-0.079-0.365-0.337-0.285-0.575c0.08-0.237,0.336-0.365,0.574-0.285
												c0.178,0.06,4.37,1.504,6.042,5.215c0.965,2.142,0.88,4.584-0.252,7.257l-0.635,1.499l-0.232-1.612
												c-0.032-0.228-0.862-5.58-6.24-6.067c-2.978-0.269-4.886,1.892-5.615,3.825c-0.757,2.007-0.749,5,1.741,6.877
												c0.025,0.019,0.05,0.034,0.075,0.055c0.198,0.149,0.24,0.429,0.093,0.63c-0.147,0.202-0.431,0.246-0.634,0.098
												C1198.07,861.554,1198.044,861.535,1198.019,861.516z"/>
										</g>
									</g>
								</g>
							</g>
						</g>
					</g>
				</g>
				<g>
					<g>
						<g>
							<g>
								<g>
									<g>
										<g>
											<path style="fill:#F07162;" d="M1192.218,889.033c0,0-20.902,29.87,13.349,60.028l10.794-18.688
												C1216.361,930.373,1189.222,917.352,1192.218,889.033z"/>
										</g>
									</g>
								</g>
							</g>
						</g>
					</g>
				</g>
				<g>
					<g>
						<g>
							<g>
								<g>
									<g>
										<path d="M1254.273,915.445c0,0-21.503,38.402-45.565,22.216c-34.431-23.161-23.407-44.465-13.732-61.401l23.697-32.149
											l8.036-8.456l0,0c0.347,4.407-0.725,8.804-3.06,12.559c-5.077,8.165-18.906,30.05-17.684,32.401
											C1207.692,883.932,1251.648,908.209,1254.273,915.445z"/>
									</g>
								</g>
							</g>
						</g>
					</g>
				</g>
				<g>
					<g>
						<g>
							<g>
								<g>
									<g>
										<g>
											<path style="fill:#F07162;" d="M1232.048,898.786c-0.152-0.115-0.221-0.317-0.157-0.507
												c0.08-0.238,0.338-0.364,0.575-0.284l9.07,3.069l10.579-18.817c0.123-0.218,0.399-0.296,0.617-0.173
												c0.224,0.119,0.296,0.399,0.173,0.617l-10.948,19.473l-9.783-3.311C1232.128,898.838,1232.086,898.815,1232.048,898.786z
												"/>
										</g>
									</g>
								</g>
							</g>
						</g>
					</g>
				</g>
			</g>
			<g>
				<polygon style="fill:#A5EFED;" points="1137.397,901.605 1184.916,1009.986 1200.434,969.554 1168.003,886.63 				"/>
			</g>
			<g>
				<path style="fill:#3D1F35;" d="M916.998,1389.512c0,0,104.582,91.324,191.526,114.51l-168.267,293.232
					c0,0,35.059,37.554,93.293,37.554c0,0,230.116-335.374,230.194-374.594c0.056-28.082-198.875-159.424-198.875-159.424
					l-147.872,42.719V1389.512z"/>
			</g>
			<g>
				<path style="fill:#49263E;" d="M549.784,1760.834l328.604-555.34l97.198-6.115l89.284,101.41c0,0-37.79,54.219-98.581,110.082
					c-60.792,55.863-131.441,105.974-206.199,220.986c-74.757,115.011-120.762,182.375-120.762,182.375
					S585.93,1792.873,549.784,1760.834z"/>
			</g>
			<g>
				<path style="fill:#3AA1C9;" d="M625.234,1881.823h-62.196l-36.298-95.844c-1.815-4.792,1.35-10.016,6.438-10.626l28.454-3.412
					c0,0,2.969,40.442,34.345,49.666l-5.285,32.029c14.966,5.696,18.785,4.6,34.542,12.927
					C634,1871.193,625.234,1881.823,625.234,1881.823z"/>
			</g>
			<g>
				<path style="fill:#FFFFFF;" d="M1074.106,1307.628c0,0,15.814-94.77,29.779-111.2c13.966-16.43,27.087-27.329,27.087-27.329
					c20.579,45.354,56.738,109.487,67.803,115.26c18.895,9.858,65.721-18.895,102.689-59.97
					c36.968-41.075,78.043-84.615,78.043-84.615l-46.005-55.862l-64.852,57.416l-34.55,30.485c0,0-47.648-191.411-59.97-234.13
					c-12.323-42.719-45.183-36.968-45.183-36.968c-47.648,8.215-250.56,304.78-250.56,304.78s52.743,15.865,70.65,23.824
					C1000.792,1252.321,1004.477,1304.609,1074.106,1307.628z"/>
			</g>
			<g>
				<path style="fill:#1D1D1B;" d="M1206.462,1286.884c-3.344,0-6.072-0.593-8.129-1.705c-9.893-5.345-33.642-48.227-34.649-50.05
					c-50.722-79.573-60.312-180.664-60.403-181.676l1.856-0.167c0.091,1.008,9.646,101.661,60.149,180.893
					c0.274,0.491,24.517,44.274,33.933,49.363c9.128,4.923,34.578-1.921,68.86-28.64c33.815-26.354,87.455-90.793,87.992-91.441
					l1.434,1.19c-0.54,0.65-54.306,65.241-88.282,91.721C1241.337,1278.105,1219.338,1286.884,1206.462,1286.884z"/>
			</g>
			<g>
				<polygon style="fill:#1D1D1B;" points="1227.102,1199.636 1225.312,1199.123 1233.136,1171.795 1198.859,1035.636 
					1200.666,1035.181 1235.065,1171.828 				"/>
			</g>
			<g>
				
					<rect x="1217.455" y="1126.93" transform="matrix(0.7497 -0.6617 0.6617 0.7497 -425.0584 1131.806)" style="fill:#1D1D1B;" width="132.692" height="1.863"/>
			</g>
			<g>
				<path style="fill:#1D1D1B;" d="M1070.609,1308.658c-26.669,0-54.668-16.76-83.288-49.878
					c-25.963-30.043-70.082-40.091-70.524-40.19l0.402-1.819c0.448,0.1,45.156,10.273,71.532,40.79
					c29.232,33.827,57.735,50.376,84.599,49.174c1.487-7.64,14.457-73.678,23.181-98.144l1.756,0.626
					c-9.173,25.721-23.107,97.862-23.246,98.588l-0.137,0.713l-0.726,0.04C1072.979,1308.626,1071.794,1308.658,1070.609,1308.658z"
					/>
			</g>
			<g>
				<path style="fill:#FEC786;" d="M526.141,1783.182l34.659,92.725c1.348,3.558,4.757,5.912,8.562,5.912h53.726
					c1.527,0,2.964,0.797,3.7,2.136c0.362,0.658,0.703,1.444,0.916,2.325c0.697,2.884-1.192,5.254-4.159,5.254h-59.784
					c-4.485,0-8.482-2.832-9.967-7.065l-34.338-99.499c-0.496-1.436-0.096-3.116,1.158-3.973c0.522-0.357,1.199-0.588,2.07-0.537
					C524.261,1780.552,525.581,1781.704,526.141,1783.182z"/>
			</g>
			<g>
				<path style="fill:#1D1D1B;" d="M623.546,1892v-0.932c1.296,0,2.396-0.489,3.096-1.379c0.694-0.883,0.911-2.054,0.609-3.301
					c-0.178-0.74-0.472-1.483-0.871-2.21c-0.643-1.168-1.904-1.894-3.291-1.894h-53.726c-3.975,0-7.591-2.496-8.998-6.211
					l-34.66-92.727c-0.527-1.392-1.723-2.343-3.047-2.42c-0.68-0.057-1.278,0.113-1.779,0.455c-1.033,0.706-1.436,2.12-0.981,3.437
					l-0.881,0.306c-0.592-1.714-0.043-3.57,1.336-4.51c0.676-0.464,1.472-0.657,2.36-0.619c1.69,0.1,3.207,1.286,3.865,3.022
					l34.66,92.727c1.269,3.355,4.535,5.609,8.126,5.609h53.726c1.727,0,3.3,0.911,4.108,2.378c0.439,0.799,0.762,1.619,0.961,2.44
					c0.369,1.528,0.092,2.982-0.783,4.094C626.494,1891.383,625.134,1892,623.546,1892z"/>
			</g>
			<g>
				<path style="fill:#3AA1C9;" d="M556.583,1781.418l5.081-9.107l3.47,4.018l2.51,5.89l1.553,3.105l1.216,5.589l1.371,7.194
					l-0.155,3.752l-4.658,2.665c0,0-1.682-4.269-1.786-4.373C565.083,1800.048,556.583,1781.418,556.583,1781.418z"/>
			</g>
			<g>
				<path style="fill:#FE9F73;" d="M571.785,1800.85l1.386,8.237c0,0,2.376,5.583,5.109,7.238l3.609,2.084l6.698,2.267l6.251,0.781
					l0.276-3.295L571.785,1800.85z"/>
			</g>
			<g>
				<path style="fill:#1D1D1B;" d="M627.505,1868.994c-6.21-6.823-36.625-14.828-36.931-14.908l0.234-0.903
					c1.263,0.331,30.991,8.159,37.386,15.185L627.505,1868.994z"/>
			</g>
			<g>
				<path style="fill:#1D1D1B;" d="M581.157,1861.089l-0.546-0.757l9.651-6.963l5.176-31.365l-0.469-0.06
					c-9.418-1.23-22.316-2.913-23.57-19.215c-1.871-24.335-9.955-30.35-10.036-30.408l0.536-0.762
					c0.347,0.244,8.518,6.241,10.428,31.098c1.196,15.549,13.154,17.11,22.762,18.364l1.425,0.187l-5.395,32.694L581.157,1861.089z"
					/>
			</g>
		</g>
		<g>
			<path style="fill:#F07162;" d="M1234.63,910.109c-0.141,0-0.281-0.065-0.373-0.186c-2.958-3.945-17.158-6.42-17.302-6.445
				c-0.253-0.044-0.423-0.285-0.38-0.539c0.044-0.254,0.276-0.429,0.538-0.38c0.599,0.103,14.71,2.564,17.89,6.805
				c0.154,0.206,0.112,0.498-0.094,0.652C1234.826,910.079,1234.727,910.109,1234.63,910.109z"/>
		</g>
	</g>
</g>
</svg>
